<svg width="160" height="30" viewBox="0 0 160 30" fill="none" xmlns="http://www.w3.org/2000/svg">
<g clip-path="url(#clip0_451_942)">
<path fill-rule="evenodd" clip-rule="evenodd" d="M18.6842 23.0197L5.33594 26.3989L18.6842 29.3714L23.3089 26.0669L18.6842 23.0197Z" fill="#B5B4D6"/>
<path fill-rule="evenodd" clip-rule="evenodd" d="M142.143 23.0197L155.492 26.3989L142.143 29.3714L137.519 26.0669L142.143 23.0197Z" fill="#B5B4D6"/>
<path fill-rule="evenodd" clip-rule="evenodd" d="M31.7099 28.4048C31.2049 29.0051 30.4316 29.3313 29.4979 29.3313C27.8367 29.3313 26.5967 28.2122 26.5967 26.6487C26.5967 25.085 27.8367 23.966 29.5056 23.966C30.4316 23.966 31.2049 24.292 31.7099 24.885L30.914 25.5962C30.5543 25.1961 30.1025 24.9886 29.5668 24.9886C28.5641 24.9886 27.8521 25.6703 27.8521 26.6487C27.8521 27.6269 28.5641 28.3086 29.5668 28.3086C30.1025 28.3086 30.5543 28.101 30.914 27.6935L31.7099 28.4048ZM34.3105 27.1155V29.2422H33.0705V24.0549H34.3105V26.1002H36.7449V24.0549H37.9849V29.2422H36.7449V27.1155H34.3105ZM40.3481 29.2422L40.8227 28.1308H43.3104L43.7849 29.2422H45.0862L42.6905 24.0549H41.4657L39.0774 29.2422H40.3481ZM42.0704 25.2332L41.2209 27.2193H42.9201L42.0704 25.2332ZM50.098 29.2422V28.2641H47.4114V24.0549H46.1714V29.2422H50.098ZM55.2477 28.2641V29.2422H51.3209V24.0549H52.5609V28.2641H55.2477ZM60.6193 29.2422V28.2788H57.703V27.0783H60.1906V26.1447H57.703V25.0183H60.5197V24.0549H56.4706V29.2422H60.6193ZM63.3577 26.0928V29.2422H62.133V24.0549H63.1586L65.8224 27.2042V24.0549H67.0472V29.2422H66.0291L63.3577 26.0928ZM71.4314 29.3313C72.1969 29.3313 73.0083 29.1016 73.5977 28.6716V26.567H72.4646V28.0863C72.1509 28.2493 71.8371 28.3086 71.5002 28.3086C70.4746 28.3086 69.7625 27.6195 69.7625 26.6487C69.7625 25.6629 70.4746 24.9886 71.5155 24.9886C72.0589 24.9886 72.5106 25.174 72.901 25.5741L73.697 24.8626C73.1765 24.2772 72.3958 23.966 71.4543 23.966C69.7473 23.966 68.5073 25.085 68.5073 26.6487C68.5073 28.2122 69.7473 29.3313 71.4314 29.3313ZM79.4207 28.2788V29.2422H75.272V24.0549H79.3213V25.0183H76.5044V26.1447H78.9921V27.0783H76.5044V28.2788H79.4207ZM86.199 29.2422V27.4044L88.2809 24.0549H87.0638L85.6324 26.3595L84.2011 24.0549H82.8844L84.9587 27.3898V29.2422H86.199ZM94.6243 26.6487C94.6243 28.1975 93.3772 29.3313 91.6928 29.3313C90.0012 29.3313 88.7612 28.1901 88.7612 26.6487C88.7612 25.1071 90.0012 23.966 91.6928 23.966C93.3772 23.966 94.6243 25.0997 94.6243 26.6487ZM91.6928 28.3086C90.7363 28.3086 90.0163 27.6342 90.0163 26.6487C90.0163 25.6629 90.7363 24.9886 91.6928 24.9886C92.6501 24.9886 93.3692 25.6629 93.3692 26.6487C93.3692 27.6342 92.6501 28.3086 91.6928 28.3086ZM100.892 26.9598C100.892 28.4864 99.9888 29.3313 98.4652 29.3313C96.9417 29.3313 96.0386 28.4864 96.0386 26.9598V24.0549H97.2785V26.9153C97.2785 27.901 97.723 28.3086 98.4732 28.3086C99.2305 28.3086 99.667 27.901 99.667 26.9153V24.0549H100.892V26.9598ZM103.883 29.2422V27.7973H105.023L106.056 29.2422H107.389L106.187 27.5749C106.883 27.2859 107.289 26.7153 107.289 25.9371C107.289 24.7738 106.393 24.0549 104.962 24.0549H102.643V29.2422H103.883ZM103.883 26.8412H104.893C105.651 26.8412 106.033 26.5003 106.033 25.9371C106.033 25.3665 105.651 25.033 104.893 25.033H103.883V26.8412ZM115.415 29.2422V28.2641H112.727V24.0549H111.487V29.2422H115.415ZM121.375 26.9598C121.375 28.4864 120.472 29.3313 118.949 29.3313C117.425 29.3313 116.522 28.4864 116.522 26.9598V24.0549H117.762V26.9153C117.762 27.901 118.207 28.3086 118.957 28.3086C119.714 28.3086 120.151 27.901 120.151 26.9153V24.0549H121.375V26.9598ZM125.69 29.3313C126.624 29.3313 127.398 29.0051 127.903 28.4048L127.107 27.6935C126.747 28.101 126.295 28.3086 125.759 28.3086C124.757 28.3086 124.045 27.6269 124.045 26.6487C124.045 25.6703 124.757 24.9886 125.759 24.9886C126.295 24.9886 126.747 25.1961 127.107 25.5962L127.903 24.885C127.398 24.292 126.624 23.966 125.698 23.966C124.03 23.966 122.79 25.085 122.79 26.6487C122.79 28.2122 124.03 29.3313 125.69 29.3313ZM130.495 27.9306V29.2422H129.263V24.0549H130.495V26.4782L132.869 24.0549H134.247L132.027 26.367L134.376 29.2422H132.93L131.215 27.2042L130.495 27.9306Z" fill="#B5B4D6"/>
<path fill-rule="evenodd" clip-rule="evenodd" d="M13.063 18.6476L14.2719 17.9807L17.0596 16.4742C17.5036 16.2671 18.3527 15.9009 18.3527 15.9009L19.0359 15.4232L18.3177 14.3486C18.3071 14.3537 18.2871 14.364 18.2606 14.3777C18.123 14.449 17.8095 14.6112 17.7131 14.6112C17.6286 14.6112 17.5768 14.6323 17.538 14.6481C17.4482 14.6846 17.4274 14.693 17.2323 14.3486L17.0596 14.062L9.50871 0.5L2.25774 14.3486C2.06628 14.7077 1.97484 14.6833 1.82519 14.6433C1.76917 14.6284 1.705 14.6112 1.62436 14.6112C1.49278 14.6112 1.2368 14.5714 1.00655 14.4918C0.967236 14.4633 0.887229 14.611 0.822203 14.7312C0.778438 14.812 0.741454 14.8804 0.728223 14.874L0.333508 15.3277L0 15.7576C0.4605 15.9646 1.22915 16.3308 1.22915 16.3308L5.05807 18.3146L5.90508 18.6476L6.61862 17.2862C6.55282 17.2543 6.14372 17.0234 5.90508 16.7846C5.84766 16.7272 5.79856 16.6876 5.75942 16.6562C5.63585 16.5568 5.61128 16.537 5.73617 16.283C5.73617 16.283 6.14372 15.4949 6.34591 15.3277C6.5481 15.1606 12.6195 15.3277 12.6195 15.3277L12.9462 15.9487C13.0135 16.0857 13.0908 16.2031 13.1586 16.3063C13.2564 16.455 13.3344 16.5737 13.3344 16.6772C13.3344 16.7129 13.3361 16.7489 13.3378 16.7847C13.3472 16.9883 13.3566 17.1922 13.063 17.3817L12.6684 17.5488L13.063 18.6476ZM8.27239 11.4587L9.50871 8.9681L10.7451 11.4587H8.27239ZM26.3456 17.5488L25.362 18.6476L24.8186 18.1874C24.6211 17.9644 21.0119 14.5846 20.6172 14.2502L21.0807 13.9665L21.9123 13.3693C21.9304 13.3869 22.3069 13.7514 22.471 13.7514C22.5237 13.7514 22.5739 13.7616 22.6248 13.772C22.7802 13.8034 22.942 13.8362 23.2023 13.5843L27.1521 9.7278L22.9761 5.72396C22.8899 5.64052 22.8227 5.57066 22.7669 5.51277C22.5995 5.33868 22.5363 5.27305 22.3758 5.27305C22.2114 5.27305 21.5974 5.77459 21.5645 5.82235L20.6172 5.24915L21.2041 4.74763C21.4343 4.55656 21.7303 4.3018 22.0922 3.98336L24.3125 1.81002C24.404 1.71327 24.6518 1.47251 24.9207 1.21084C25.1833 0.955745 25.466 0.680775 25.6445 0.5L26.0879 0.974119L26.4309 1.42789C26.4271 1.43143 26.4124 1.44986 26.3904 1.47694C26.3137 1.57202 26.152 1.77292 26.0879 1.81002C25.9399 1.99745 25.9969 2.16198 26.046 2.3036C26.0676 2.36649 26.0879 2.42489 26.0879 2.47874V2.48315C26.0879 2.55094 26.0879 2.58912 26.101 2.62255C26.1177 2.66565 26.1563 2.70084 26.2442 2.78139C26.2911 2.82424 26.3518 2.87989 26.4309 2.9564L30.3076 6.64631L34.2544 2.90863C34.5012 2.66964 34.4331 2.45912 34.374 2.27707C34.3504 2.20442 34.3283 2.13631 34.3283 2.07273C34.3283 1.98174 34.2363 1.90375 34.1174 1.80309C34.0285 1.72762 33.9244 1.63941 33.8327 1.52343C33.8191 1.5169 33.8918 1.45944 33.9788 1.39064C34.1038 1.29166 34.2587 1.16918 34.2296 1.141L34.9869 0.5L35.406 0.830823C35.4989 0.92828 35.6612 1.07821 35.8427 1.24616C36.0466 1.43487 36.2756 1.64646 36.4583 1.83176L38.4692 3.83229C38.5636 3.90849 38.7444 4.09033 38.9508 4.29767C39.1754 4.52365 39.4303 4.77989 39.6362 4.96255L39.0465 5.41634L38.3249 5.91789C38.3194 5.91259 38.2799 5.86235 38.2275 5.79535C38.1219 5.66088 37.9633 5.4588 37.9194 5.41634C37.7324 5.27786 37.6436 5.32469 37.5561 5.37083C37.5127 5.39367 37.4699 5.41634 37.4153 5.41634C37.2684 5.41634 37.1053 5.59714 36.9055 5.81883C36.8149 5.91943 36.7165 6.02845 36.6089 6.13282L33.1406 9.42866L37.1731 13.2022C37.5182 13.5366 37.7057 13.6559 37.9194 13.6559C37.9735 13.6559 38.0095 13.6659 38.04 13.6743C38.1112 13.6941 38.1519 13.7055 38.3249 13.5604L38.6701 13.2022L39.8449 13.8333L38.823 14.6477C38.6239 14.8132 38.2908 15.1063 37.9704 15.3887L37.9697 15.3892L37.8227 15.5188L35.5575 17.7564C35.482 17.8359 35.4048 17.9064 35.3153 17.9881C35.1897 18.1024 35.0404 18.2386 34.8388 18.4522L34.4271 18.7765L33.8327 17.7564L34.2544 17.3817L34.2794 17.3519C34.3902 17.2201 34.4212 17.183 34.4283 17.142C34.4312 17.126 34.4302 17.1094 34.429 17.0862C34.4281 17.0695 34.4271 17.0493 34.4271 17.0234C34.4271 16.8697 34.2899 16.7468 34.0776 16.5568C34.0043 16.4909 33.9216 16.417 33.8327 16.3308L29.9657 12.5812L25.9602 16.3308C25.7051 16.5777 25.7381 16.7161 25.7729 16.8614C25.7853 16.9129 25.7977 16.9651 25.7977 17.0234C25.7977 17.1826 26.3456 17.5488 26.3456 17.5488ZM44.814 19.5024L47.7862 16.7846H51.6683H52.85C52.85 16.7846 53.1802 16.9359 53.2131 17.2862L53.3043 17.7564L54.5226 17.931C54.5226 17.931 54.5474 17.3021 54.5226 17.0234C54.5043 16.8148 54.5133 16.6553 54.519 16.5548C54.5212 16.5212 54.5226 16.4941 54.5226 16.4742V13.7514V12.3663L53.3043 12.7007C53.2028 12.9952 52.9891 12.9932 52.501 12.9885C52.4349 12.9879 52.3642 12.9872 52.2879 12.9872H48.9941V11.2857H52.1746C52.6734 11.2857 52.8283 11.2857 52.9452 11.3502C52.9981 11.3793 53.0432 11.4215 53.1084 11.4826C53.1116 11.4918 53.1213 11.5166 53.1348 11.5511C53.1921 11.6968 53.3176 12.0159 53.3043 12.0673L54.5226 12.2008V10.8139V8.76344V6.70918L53.2131 6.96872C53.2216 7.00214 53.27 7.30124 53.1084 7.47027C52.962 7.62334 52.6238 7.64939 52.2879 7.64939L48.9941 7.66133V5.91789H52.2879C52.9292 5.91789 53.098 5.96566 53.2131 6.30001L54.5226 6.55509V5.41634V2.668V0.974119L53.2131 1.14047C53.2131 1.14047 53.2644 1.70439 53.1084 1.83176C52.9522 1.95914 52.7484 1.9772 52.2879 1.9772L44.6894 2.07273C44.6894 2.07273 44.8373 7.58967 44.6894 7.47027C44.667 7.45212 44.6446 7.4356 44.6227 7.41951C44.5012 7.32976 44.3964 7.25213 44.3684 6.96872V6.55509L43.1056 6.41434V7.66133V9.89407V11.6498V12.5812L44.3684 12.2008V11.6498C44.3684 11.4137 44.3863 11.3017 44.814 11.2857V19.5024ZM72.7908 15.2206C71.4586 16.2555 69.4169 17.2862 67.6571 17.2862C65.5684 17.2862 63.2802 16.2185 61.8 14.7855C60.3198 13.3525 59.6619 11.0888 59.6619 9.06668C59.6619 7.04461 60.6119 5.41634 62.0924 3.98336C63.5725 2.55039 65.5684 1.81002 67.6571 1.81002C69.3509 1.81002 71.3929 2.19777 72.7908 3.21676V3.83229C72.7913 3.92936 72.7897 4.07626 72.7875 4.25999C72.7825 4.71056 72.7747 5.38269 72.7908 6.08506C72.8087 6.85804 72.8009 7.40862 72.7951 7.81681V7.81796V7.81891C72.7927 7.97738 72.7908 8.11435 72.7908 8.23451H71.4234C71.2916 7.54988 70.9733 7.11236 70.2333 6.55509C69.4274 5.95006 68.726 5.72396 67.6571 5.72396C66.4564 5.72396 65.0588 6.44985 64.561 6.96872C64.0633 7.48761 63.8157 8.67072 63.8157 9.34509C63.8157 10.0195 64.161 11.2314 65.0244 12.0673C65.8879 12.9032 66.4564 13.1783 67.6571 13.1783C68.7425 13.1783 69.6554 12.9872 70.4613 12.414C71.2016 11.8886 71.3081 11.3424 71.4234 10.6099H72.7908V15.2206ZM88.4828 18.7765C88.4828 18.7765 89.6818 18.3306 89.896 18.1874L92.5484 16.6772C92.7849 16.5669 93.0604 16.3989 93.3058 16.2493C93.5218 16.1181 93.7147 16.0008 93.8373 15.9487L94.9396 15.3277C94.9396 15.3277 93.9529 14.3486 93.8373 14.3486C93.7564 14.3486 93.6622 14.3815 93.5618 14.4165C93.3138 14.5027 93.0302 14.6013 92.8311 14.2502L85.1548 0.5L77.8503 13.5604C77.781 13.6905 77.7197 13.8251 77.6613 13.9527C77.4988 14.3089 77.3609 14.6112 77.1432 14.6112C77.0115 14.6112 76.2757 14.3645 76.2428 14.3486L75.3695 15.7576C75.3695 15.7576 76.316 16.1955 76.5628 16.3069L79.4532 17.7564C79.8641 17.9953 81.4227 18.6952 81.4227 18.6952C81.4227 18.6952 82.1804 17.3021 82.1311 17.2862C81.8024 17.0632 81.2582 16.6174 81.4227 16.283L82.1311 15.3277H87.6995L87.9689 15.7576C88.0141 15.8498 88.0999 15.9704 88.1928 16.1015C88.4372 16.4457 88.7329 16.862 88.4828 17.0234L87.9689 17.7564L88.4828 18.7765ZM83.8212 11.3747H86.0575L84.9395 9.06668L83.8212 11.3747ZM102.392 17.2862C103.609 17.2862 105.132 17.0155 106.052 16.283C107.072 15.471 108.146 13.8708 108.146 12.5812C108.146 10.9094 107.687 9.34509 106.321 8.53586L104.234 7.18584C103.987 7.04142 103.738 6.92795 103.512 6.82508C103.015 6.59905 102.632 6.42425 102.632 6.08506C102.632 6.05631 102.631 6.02834 102.631 6.00105C102.628 5.69571 102.628 5.47766 102.929 5.27305C103.258 5.05013 105.008 5.67507 105.353 6.64631L106.986 6.41434C106.986 6.28582 106.984 6.13286 106.982 5.96413V5.96319C106.979 5.56773 106.974 5.08528 106.986 4.6282V2.59398C106.18 2.00486 104.516 1.52343 103.199 1.52343C101.719 1.52343 100.222 2.08069 99.384 2.90863C98.6276 3.64104 97.9547 4.7715 97.9547 5.91789C97.9547 7.55784 98.2853 9.17743 99.9307 10.1327L102.052 11.4587C102.973 12.0001 103.199 12.1433 103.199 12.7007C103.199 13.0349 103.004 13.3693 102.543 13.3693C101.804 13.3693 101.293 13.0827 100.734 12.7007C100.109 12.3026 99.6142 11.6816 99.384 10.9333H97.9547C97.9547 10.9867 97.9538 11.0636 97.9529 11.1624V11.1635C97.9493 11.4777 97.9431 12.0114 97.9547 12.7007V15.2206C98.9253 16.367 100.533 17.2862 102.392 17.2862ZM118.354 17.0234C118.074 17.0075 114.609 17.0075 114.33 17.0234C114.05 17.0393 112.511 17.0234 112.511 17.0234L112.6 15.5188H113.395C113.7 15.492 113.696 15.3694 113.687 15.0657V15.0648C113.685 15.0077 113.684 14.9443 113.684 14.874V4.74763C113.684 4.65163 113.69 4.54058 113.697 4.4251C113.723 4.00417 113.753 3.52418 113.468 3.49921L112.6 3.98336L112.511 1.83176H114.705L117.958 1.81002C118.057 1.81002 119.888 1.83176 119.888 1.83176V4.10278L118.958 3.49921C118.649 3.52637 118.65 3.5525 118.657 3.83677C118.658 3.88555 118.659 3.94194 118.659 4.00725V14.3486C118.659 14.4394 118.654 14.5365 118.649 14.6339C118.628 15.0142 118.608 15.3979 118.896 15.4232H119.562L119.888 17.0234C119.888 17.0234 118.633 17.0393 118.354 17.0234ZM125.212 17.0234H130.417H131.23L131.005 15.4325C131.005 15.4325 130.375 15.471 130.244 15.3277C130.214 15.2953 130.172 15.261 130.123 15.2222C129.957 15.0902 129.726 14.9058 129.726 14.5611V10.8139L133.723 14.7855C133.723 14.7855 134.081 15.2891 133.949 15.4325C133.818 15.5758 132.842 15.5188 132.842 15.5188L132.53 17.0234C132.53 17.0234 138.698 17.0854 138.829 17.0854H139.775L139.471 15.3277L138.666 15.2727C138.34 15.244 138.34 15.1328 138.344 14.7847V14.7802V14.7753C138.344 14.7569 138.345 14.7379 138.345 14.7183C138.345 14.7 138.345 14.6812 138.345 14.6618L138.107 4.48935C138.107 4.31296 138.087 4.17296 138.072 4.05928C138.048 3.88587 138.032 3.77346 138.107 3.6869C138.23 3.5436 139.007 3.55859 139.007 3.55859L139.471 1.9605H132.53L132.842 3.55859C132.842 3.55859 133.949 3.53239 133.949 3.97819V7.83971L129.943 4.1299C129.943 4.1299 129.595 3.70189 129.726 3.55859C129.858 3.4153 130.668 3.62241 130.668 3.62241L131.005 1.9605H124.381V3.6869L125.212 3.57882C125.44 3.59896 125.45 3.75035 125.46 3.89526C125.465 3.97972 125.47 4.06196 125.519 4.11473C125.608 4.21155 125.577 4.638 125.547 5.04194V5.04301C125.532 5.23638 125.519 5.42482 125.519 5.56902V14.7855C125.519 15.2314 125.376 15.4006 125.014 15.4325L124.381 15.4232L123.906 16.9904L125.212 17.0234ZM157.788 14.7855C156.316 16.2185 154.329 17.3513 152.224 17.3513C150.135 17.3513 147.73 16.7056 146.25 15.2727C144.769 13.8397 143.808 11.4508 143.808 9.42866C143.808 7.40659 144.586 5.41118 146.066 3.97819C147.546 2.54522 149.934 1.52343 152.023 1.52343C154.128 1.52343 156.316 2.40729 157.788 3.83229C159.26 5.25732 160 7.02869 160 9.06668C160 11.0888 159.26 13.3525 157.788 14.7855ZM153.329 7.83971V5.82235C153.363 5.84821 153.426 5.87176 153.51 5.90373C153.738 5.98985 154.128 6.13706 154.56 6.55509C155.031 7.01123 155.28 7.43441 155.427 7.68412C155.464 7.74819 155.495 7.80085 155.522 7.83971H153.329ZM148.101 7.83971H150.325V5.82235C150.272 5.83845 150.215 5.85204 150.155 5.8665C149.857 5.93782 149.469 6.03069 148.938 6.55509C148.358 7.12657 148.198 7.5706 148.123 7.78165C148.115 7.80356 148.108 7.82294 148.101 7.83971ZM153.329 10.9333H155.522C155.508 10.9749 155.497 11.0218 155.483 11.0735C155.406 11.3688 155.29 11.8181 154.779 12.3059C154.283 12.7791 153.75 13.0139 153.47 13.1375C153.411 13.1636 153.364 13.1848 153.329 13.2022V10.9333ZM150.257 13.0629C150.308 13.0856 150.356 13.1066 150.399 13.127L150.325 10.9954L148.101 10.9333C148.101 10.9954 148.448 11.6795 149.032 12.2526C149.53 12.7418 149.958 12.931 150.257 13.0629Z" fill="url(#paint0_linear_451_942)"/>
</g>
<defs>
<linearGradient id="paint0_linear_451_942" x1="80.0723" y1="0.228554" x2="80.0723" y2="19.7739" gradientUnits="userSpaceOnUse">
<stop stop-color="#FFC700"/>
<stop offset="1" stop-color="#FF5C00"/>
</linearGradient>
<clipPath id="clip0_451_942">
<rect width="160" height="29" fill="white" transform="translate(0 0.5)"/>
</clipPath>
</defs>
</svg>


